# xmcd
#
# Track frame offsets:
#	150
#	29492
#	43015
#	70967
#	90208
#	107183
#	126672
#	144471
#	165873
#
# Disc length: 2507 seconds
#
# Revision: 0
# Processed by: cddbd v1.5.2PL0 Copyright (c) Steve Scherf et al.
# Submitted via: audiograbber 1.83.01
#
DISCID=7709c909
DTITLE=Stefan Diestelmann - Hofmusik
DYEAR=1980
DGENRE=Blues
TTITLE0=Bernies Blues (Für Bernie Ringe)
TTITLE1=Blues Geschichte
TTITLE2=Für Ramsey L.
TTITLE3=Der Alte und die Kneipe
TTITLE4=Hof vom Prenzlauer Berg
TTITLE5=Alexanders Swing Time
TTITLE6=Blues von der guten Erziehung
TTITLE7=Torturas
TTITLE8=Bottleneck
EXTD=
EXTT0=
EXTT1=
EXTT2=
EXTT3=
EXTT4=
EXTT5=
EXTT6=
EXTT7=
EXTT8=
PLAYORDER=
